<svg xmlns="http://www.w3.org/2000/svg" width="280" height="150" viewBox="0 0 501 189" version="1.1"><path d="M 247.007 22.210 C 242.420 27.869, 238.221 33.082, 237.676 33.792 C 237.008 34.664, 237.066 35.466, 237.855 36.255 C 238.749 37.149, 242.080 35.913, 251.957 31.021 L 264.889 24.616 261.277 19.558 C 259.291 16.776, 257.144 13.919, 256.507 13.210 C 255.592 12.191, 253.593 14.085, 247.007 22.210 M 286.581 37.170 C 286.243 38.245, 284.226 58.320, 283.640 66.440 C 283.535 67.889, 284.514 68.678, 287.500 69.555 C 292.328 70.973, 292.380 67.749, 286.933 104.875 C 284.723 119.931, 283.197 132.531, 283.541 132.875 C 283.885 133.219, 290.767 133.491, 298.833 133.480 C 314.822 133.458, 320.459 132.157, 328.629 126.606 L 332.500 123.976 332.528 115.238 C 332.569 102.417, 336.574 94.828, 348.314 85.326 C 350.759 83.346, 351 82.532, 351 76.254 C 351 67.228, 348.813 61.121, 343.443 55.148 C 335.566 46.386, 317.812 39.273, 299.500 37.540 C 295.650 37.176, 291.262 36.645, 289.749 36.360 C 287.965 36.023, 286.852 36.308, 286.581 37.170 M 158.672 43.006 C 152.166 45.106, 146.650 47.016, 146.415 47.252 C 146.179 47.488, 146.257 49.037, 146.589 50.696 C 147.133 53.416, 147.550 53.701, 150.846 53.606 L 154.500 53.500 155.340 65.859 C 156.147 77.736, 156.309 78.388, 159.498 82.565 C 164.186 88.707, 165.309 92.896, 164.809 102.375 C 164.498 108.274, 163.685 112.019, 161.841 116.042 C 159.768 120.566, 159.388 122.638, 159.777 127.319 C 160.166 132.012, 160.548 132.970, 161.876 132.589 C 162.769 132.332, 166.537 131.817, 170.250 131.445 L 177 130.767 177 114.569 L 177 98.371 207.250 113.645 C 223.887 122.045, 237.885 128.936, 238.355 128.959 C 239.044 128.992, 238.952 124.162, 238.050 112.878 C 238.022 112.536, 236.290 111.982, 234.200 111.648 C 225.608 110.274, 215.238 103.171, 209 94.388 C 208.140 93.177, 202.923 90.467, 196.768 88.035 L 186.036 83.794 198.109 70.420 C 204.749 63.064, 210.029 56.680, 209.841 56.232 C 209.380 55.132, 193.423 40, 192.723 40 C 192.419 40, 188.194 45.599, 183.335 52.443 C 173.248 66.649, 173.266 66.651, 173.100 51.332 C 173.002 42.385, 172.446 38.903, 171.143 39.095 C 170.789 39.147, 165.177 40.907, 158.672 43.006 M 58.500 41.641 C 43.418 44.721, 31.773 48.946, 22.856 54.571 L 18.213 57.500 24.718 68.713 L 31.224 79.926 35.231 77.882 C 37.435 76.758, 39.606 76.212, 40.055 76.669 C 40.504 77.126, 48.587 94.825, 58.016 116 C 67.446 137.175, 75.553 154.906, 76.032 155.402 C 76.849 156.247, 91.420 151.680, 93.330 149.979 C 93.786 149.573, 91.649 140.261, 88.580 129.285 C 85.511 118.310, 83 108.908, 83 108.392 C 83 107.877, 84.605 106.591, 86.566 105.534 C 91.836 102.697, 101.309 92.071, 104.802 85.080 C 117.065 60.541, 99.623 40.525, 66.500 41.124 C 63.200 41.183, 59.600 41.416, 58.500 41.641 M 236.734 50.030 C 227.523 52.342, 220.124 57.889, 216.262 65.380 C 212.883 71.934, 212.450 83.457, 215.374 89 C 223.841 105.049, 244.419 108.700, 265.657 97.920 C 269.052 96.197, 273.068 93.495, 274.581 91.916 L 277.332 89.044 272.501 84.772 C 263.824 77.098, 264.373 77.227, 259.660 81.771 C 257.372 83.978, 254.150 86.442, 252.500 87.248 C 249.202 88.860, 243 90.268, 243 89.405 C 243 89.105, 249.059 82.259, 256.464 74.191 C 271.849 57.429, 271.759 57.807, 261.626 52.584 C 257.077 50.239, 254.453 49.610, 248.234 49.376 C 243.980 49.216, 238.806 49.510, 236.734 50.030 M 399.750 53.264 L 389 57.311 389 61.772 C 389 65.934, 389.151 66.187, 391.250 65.551 C 392.488 65.176, 394.175 64.685, 395 64.461 C 396.002 64.188, 400.558 69.609, 408.713 80.776 L 420.926 97.500 415.033 103 L 409.139 108.500 409.692 116.101 L 410.244 123.701 407.024 124.345 L 403.804 124.989 408.804 131.245 C 411.555 134.685, 414.210 137.500, 414.705 137.500 C 415.200 137.500, 420.068 132.550, 425.523 126.500 C 430.978 120.450, 435.802 115.500, 436.242 115.500 C 436.682 115.500, 447.662 126.525, 460.641 140 C 473.620 153.475, 484.575 164.630, 484.987 164.789 C 485.398 164.948, 486.689 161.348, 487.855 156.789 C 489.020 152.230, 490.244 147.541, 490.573 146.368 C 491.076 144.578, 487.543 140.909, 468.531 123.473 C 456.078 112.053, 446.252 102.394, 446.695 102.007 C 447.138 101.621, 454.156 97.129, 462.291 92.026 C 470.427 86.923, 476.952 82.442, 476.791 82.068 C 475.830 79.826, 461.367 59.063, 460.746 59.035 C 460.331 59.016, 454.316 64.287, 447.380 70.750 C 440.443 77.213, 434.483 82.484, 434.134 82.463 C 433.785 82.443, 428.978 75.020, 423.450 65.968 C 417.923 56.915, 412.748 49.443, 411.950 49.362 C 411.153 49.282, 405.663 51.037, 399.750 53.264 M 235.241 61.935 C 227.852 66.575, 225.957 75.918, 230.976 82.967 L 233.271 86.189 242.386 76.451 C 247.398 71.095, 251.850 66.121, 252.277 65.397 C 253.437 63.432, 248.691 60.765, 243.193 60.292 C 239.685 59.991, 237.677 60.405, 235.241 61.935 M 76.199 67.986 C 70.870 69.249, 70.787 67.511, 77.160 88.250 C 78.807 93.612, 80.653 98, 81.261 98 C 81.870 98, 84.431 95.859, 86.953 93.243 C 96.215 83.634, 95.913 72.438, 86.282 68.362 C 82.759 66.871, 81.161 66.811, 76.199 67.986 M 128.300 78.812 C 121.212 81.329, 115.610 85.400, 111.464 91.049 C 105.982 98.517, 104.695 102.497, 105.251 110.266 C 106.230 123.953, 114.585 131.567, 128.475 131.431 C 137.433 131.344, 143.704 128.292, 150.736 120.599 C 156.501 114.290, 159 108.150, 159 100.290 C 159 84.146, 143.607 73.377, 128.300 78.812 M 126.615 87.088 C 120.623 91.801, 119.243 99.759, 123.533 104.857 C 131.339 114.134, 147 108.964, 147 97.109 C 147 95.464, 146.550 93.840, 146 93.500 C 145.450 93.160, 145 93.551, 145 94.368 C 145 95.186, 143.763 96.828, 142.250 98.018 C 137.243 101.956, 129 98.539, 129 92.524 C 129 91.284, 129.933 89.084, 131.073 87.635 C 133.086 85.075, 133.090 85, 131.207 85 C 130.142 85, 128.075 85.940, 126.615 87.088 M 305.655 89.296 C 304.206 97.734, 301.804 120.137, 302.296 120.629 C 303.373 121.707, 313.678 118.016, 317.673 115.122 C 325.427 109.505, 328.448 100.384, 324.533 94.410 C 322.762 91.707, 314.798 87.641, 309.353 86.659 C 306.435 86.132, 306.165 86.324, 305.655 89.296 M 356.435 89.829 C 342.758 96.247, 336.202 112.038, 341.955 124.709 C 346.064 133.760, 358.229 142.273, 370.799 144.895 C 376.939 146.175, 389.651 146.373, 390.377 145.200 C 390.649 144.760, 389.936 140.674, 388.792 136.121 C 386.897 128.576, 386.526 127.896, 384.606 128.458 C 378.702 130.183, 371.872 130.223, 367.508 128.556 C 365.029 127.609, 363 126.513, 363 126.121 C 363 125.728, 369.863 123.882, 378.250 122.017 C 401.715 116.801, 401.554 116.865, 401.216 112.896 C 400.578 105.390, 392.119 95.777, 382.120 91.195 C 374.490 87.698, 362.351 87.053, 356.435 89.829 M 364.500 100.109 C 358.664 103.507, 355.100 110.277, 356.406 115.483 L 356.962 117.697 370.731 114.673 C 378.304 113.010, 384.673 111.518, 384.885 111.357 C 385.772 110.682, 382.639 105.028, 379.949 102.452 C 377.686 100.283, 375.880 99.588, 371.772 99.306 C 368.872 99.107, 365.600 99.468, 364.500 100.109" stroke="none" fill="#f4c605" fill-rule="evenodd"/><path d="M 252.400 2.849 C 250.255 4.416, 241.975 13.196, 234 22.361 C 226.025 31.525, 218.713 39.273, 217.750 39.579 C 216.178 40.078, 216.268 40.485, 218.636 43.589 C 221.181 46.927, 221.210 47.111, 219.480 49.022 C 218.496 50.110, 217.422 50.999, 217.095 50.999 C 216.768 50.998, 210.650 45.611, 203.500 39.027 C 196.350 32.443, 190.042 27.044, 189.482 27.028 C 188.922 27.013, 186.785 28.141, 184.732 29.536 C 181.142 31.976, 181 31.995, 181 30.036 C 181 28.916, 180.425 28, 179.723 28 C 177.764 28, 137.935 41.461, 134.250 43.369 C 131.064 45.018, 131 45.187, 131 51.886 C 131 55.645, 131.287 60.817, 131.639 63.380 L 132.277 68.039 135.639 67.408 C 138.532 66.865, 139 67.052, 139 68.752 C 139 70.454, 138.136 70.796, 132.728 71.230 C 129.278 71.507, 124.469 72.693, 122.040 73.867 C 119.611 75.040, 117.434 76, 117.201 76 C 116.968 76, 117.049 74.537, 117.382 72.750 C 118.222 68.235, 116.495 58.655, 113.861 53.213 C 102.031 28.775, 59.703 26.141, 18.548 47.281 C 8.435 52.475, -0.613 59.961, 0.311 62.368 C 0.575 63.057, 5.578 71.326, 11.429 80.745 L 22.066 97.870 25.415 96.471 L 28.764 95.072 31.986 102.286 C 60.076 165.195, 63.369 172.134, 64.907 171.654 C 90.458 163.685, 96.929 161.413, 100.144 159.286 C 104.337 156.511, 104.451 156.184, 103.029 151 C 102.501 149.075, 101.428 144.728, 100.644 141.340 L 99.220 135.181 103.649 138.562 C 109.534 143.054, 114.190 144.310, 123.258 143.852 C 129.498 143.537, 132.001 142.853, 137.800 139.878 L 144.805 136.284 145.474 141.642 C 145.843 144.589, 146.236 147, 146.349 147 C 146.462 147, 153.054 146.085, 160.998 144.966 C 172.115 143.400, 176.427 142.354, 179.721 140.424 L 184 137.916 184 128.650 L 184 119.385 211.058 132.692 C 225.940 140.012, 238.322 146, 238.572 146 C 238.823 146, 240.591 144.988, 242.502 143.750 L 245.975 141.500 245.988 129.830 L 246 118.161 251.250 116.442 C 254.137 115.497, 258.637 113.653, 261.250 112.345 C 264.485 110.725, 265.994 110.370, 265.980 111.233 C 265.969 111.930, 265.303 118.575, 264.500 126 C 262.310 146.249, 261.852 144.461, 269.750 146.498 C 279.912 149.120, 298.758 149.635, 308.948 147.571 C 318.664 145.602, 327.734 142.154, 333.843 138.106 L 338.186 135.229 345.343 142.453 C 353.003 150.186, 359.565 153.943, 368.799 155.885 C 375.728 157.343, 398.242 157.358, 399.694 155.906 C 400.485 155.115, 401.886 155.806, 404.765 158.406 C 406.952 160.383, 408.961 162, 409.229 162 C 409.497 162, 414.605 155.179, 420.580 146.842 L 431.444 131.684 459.513 160.469 L 487.582 189.254 489.293 185.377 C 490.857 181.835, 500 144.387, 500 141.523 C 500 140.848, 490.954 132.269, 479.898 122.459 C 461.563 106.191, 459.956 104.506, 461.617 103.291 C 462.619 102.558, 469.209 98.762, 476.261 94.855 C 483.314 90.948, 488.953 87.425, 488.792 87.026 C 488.631 86.627, 483.100 77.245, 476.500 66.177 L 464.500 46.053 459.622 46.026 C 454.808 46, 454.615 46.125, 444.769 55.575 C 435.647 64.330, 434.686 64.993, 433.540 63.325 C 432.852 62.321, 429.266 56.669, 425.573 50.765 C 421.880 44.861, 418.460 39.784, 417.973 39.483 C 417.486 39.182, 409.531 41.714, 400.294 45.110 C 388.395 49.484, 382.553 52.174, 380.250 54.338 L 377 57.392 377 68.446 L 377 79.500 368.500 79.500 L 360 79.500 360 76.299 C 360 60.261, 350.024 45.535, 333.754 37.556 C 316.277 28.985, 286.725 25.514, 272.445 30.354 L 265.500 32.708 265.506 38.758 C 265.511 44.507, 265.412 44.755, 263.506 43.731 C 262.403 43.139, 259.034 41.920, 256.020 41.023 L 250.541 39.393 262.831 33.127 C 269.590 29.681, 274.981 26.555, 274.810 26.181 C 273.844 24.060, 257.400 0.046, 256.900 0.025 C 256.570 0.011, 254.545 1.282, 252.400 2.849 M 247.007 22.210 C 242.420 27.869, 238.221 33.082, 237.676 33.792 C 237.008 34.664, 237.066 35.466, 237.855 36.255 C 238.749 37.149, 242.080 35.913, 251.957 31.021 L 264.889 24.616 261.277 19.558 C 259.291 16.776, 257.144 13.919, 256.507 13.210 C 255.592 12.191, 253.593 14.085, 247.007 22.210 M 286.581 37.170 C 286.243 38.245, 284.226 58.320, 283.640 66.440 C 283.535 67.889, 284.514 68.678, 287.500 69.555 C 292.328 70.973, 292.380 67.749, 286.933 104.875 C 284.723 119.931, 283.197 132.531, 283.541 132.875 C 283.885 133.219, 290.767 133.491, 298.833 133.480 C 314.822 133.458, 320.459 132.157, 328.629 126.606 L 332.500 123.976 332.528 115.238 C 332.569 102.417, 336.574 94.828, 348.314 85.326 C 350.759 83.346, 351 82.532, 351 76.254 C 351 67.228, 348.813 61.121, 343.443 55.148 C 335.566 46.386, 317.812 39.273, 299.500 37.540 C 295.650 37.176, 291.262 36.645, 289.749 36.360 C 287.965 36.023, 286.852 36.308, 286.581 37.170 M 158.672 43.006 C 152.166 45.106, 146.650 47.016, 146.415 47.252 C 146.179 47.488, 146.257 49.037, 146.589 50.696 C 147.133 53.416, 147.550 53.701, 150.846 53.606 L 154.500 53.500 155.340 65.859 C 156.147 77.736, 156.309 78.388, 159.498 82.565 C 164.186 88.707, 165.309 92.896, 164.809 102.375 C 164.498 108.274, 163.685 112.019, 161.841 116.042 C 159.768 120.566, 159.388 122.638, 159.777 127.319 C 160.166 132.012, 160.548 132.970, 161.876 132.589 C 162.769 132.332, 166.537 131.817, 170.250 131.445 L 177 130.767 177 114.569 L 177 98.371 207.250 113.645 C 223.887 122.045, 237.885 128.936, 238.355 128.959 C 239.044 128.992, 238.952 124.162, 238.050 112.878 C 238.022 112.536, 236.290 111.982, 234.200 111.648 C 225.608 110.274, 215.238 103.171, 209 94.388 C 208.140 93.177, 202.923 90.467, 196.768 88.035 L 186.036 83.794 198.109 70.420 C 204.749 63.064, 210.029 56.680, 209.841 56.232 C 209.380 55.132, 193.423 40, 192.723 40 C 192.419 40, 188.194 45.599, 183.335 52.443 C 173.248 66.649, 173.266 66.651, 173.100 51.332 C 173.002 42.385, 172.446 38.903, 171.143 39.095 C 170.789 39.147, 165.177 40.907, 158.672 43.006 M 58.500 41.641 C 43.418 44.721, 31.773 48.946, 22.856 54.571 L 18.213 57.500 24.718 68.713 L 31.224 79.926 35.231 77.882 C 37.435 76.758, 39.606 76.212, 40.055 76.669 C 40.504 77.126, 48.587 94.825, 58.016 116 C 67.446 137.175, 75.553 154.906, 76.032 155.402 C 76.849 156.247, 91.420 151.680, 93.330 149.979 C 93.786 149.573, 91.649 140.261, 88.580 129.285 C 85.511 118.310, 83 108.908, 83 108.392 C 83 107.877, 84.605 106.591, 86.566 105.534 C 91.836 102.697, 101.309 92.071, 104.802 85.080 C 117.065 60.541, 99.623 40.525, 66.500 41.124 C 63.200 41.183, 59.600 41.416, 58.500 41.641 M 236.734 50.030 C 227.523 52.342, 220.124 57.889, 216.262 65.380 C 212.883 71.934, 212.450 83.457, 215.374 89 C 223.841 105.049, 244.419 108.700, 265.657 97.920 C 269.052 96.197, 273.068 93.495, 274.581 91.916 L 277.332 89.044 272.501 84.772 C 263.824 77.098, 264.373 77.227, 259.660 81.771 C 257.372 83.978, 254.150 86.442, 252.500 87.248 C 249.202 88.860, 243 90.268, 243 89.405 C 243 89.105, 249.059 82.259, 256.464 74.191 C 271.849 57.429, 271.759 57.807, 261.626 52.584 C 257.077 50.239, 254.453 49.610, 248.234 49.376 C 243.980 49.216, 238.806 49.510, 236.734 50.030 M 399.750 53.264 L 389 57.311 389 61.772 C 389 65.934, 389.151 66.187, 391.250 65.551 C 392.488 65.176, 394.175 64.685, 395 64.461 C 396.002 64.188, 400.558 69.609, 408.713 80.776 L 420.926 97.500 415.033 103 L 409.139 108.500 409.692 116.101 L 410.244 123.701 407.024 124.345 L 403.804 124.989 408.804 131.245 C 411.555 134.685, 414.210 137.500, 414.705 137.500 C 415.200 137.500, 420.068 132.550, 425.523 126.500 C 430.978 120.450, 435.802 115.500, 436.242 115.500 C 436.682 115.500, 447.662 126.525, 460.641 140 C 473.620 153.475, 484.575 164.630, 484.987 164.789 C 485.398 164.948, 486.689 161.348, 487.855 156.789 C 489.020 152.230, 490.244 147.541, 490.573 146.368 C 491.076 144.578, 487.543 140.909, 468.531 123.473 C 456.078 112.053, 446.252 102.394, 446.695 102.007 C 447.138 101.621, 454.156 97.129, 462.291 92.026 C 470.427 86.923, 476.952 82.442, 476.791 82.068 C 475.830 79.826, 461.367 59.063, 460.746 59.035 C 460.331 59.016, 454.316 64.287, 447.380 70.750 C 440.443 77.213, 434.483 82.484, 434.134 82.463 C 433.785 82.443, 428.978 75.020, 423.450 65.968 C 417.923 56.915, 412.748 49.443, 411.950 49.362 C 411.153 49.282, 405.663 51.037, 399.750 53.264 M 235.241 61.935 C 227.852 66.575, 225.957 75.918, 230.976 82.967 L 233.271 86.189 242.386 76.451 C 247.398 71.095, 251.850 66.121, 252.277 65.397 C 253.437 63.432, 248.691 60.765, 243.193 60.292 C 239.685 59.991, 237.677 60.405, 235.241 61.935 M 76.199 67.986 C 70.870 69.249, 70.787 67.511, 77.160 88.250 C 78.807 93.612, 80.653 98, 81.261 98 C 81.870 98, 84.431 95.859, 86.953 93.243 C 96.215 83.634, 95.913 72.438, 86.282 68.362 C 82.759 66.871, 81.161 66.811, 76.199 67.986 M 201.687 77.805 C 200.209 79.347, 199 80.878, 199 81.207 C 199 81.535, 200.350 82.275, 202 82.850 L 205 83.896 205 79.448 C 205 77.002, 204.859 75, 204.687 75 C 204.515 75, 203.165 76.262, 201.687 77.805 M 128.300 78.812 C 121.212 81.329, 115.610 85.400, 111.464 91.049 C 105.982 98.517, 104.695 102.497, 105.251 110.266 C 106.230 123.953, 114.585 131.567, 128.475 131.431 C 137.433 131.344, 143.704 128.292, 150.736 120.599 C 156.501 114.290, 159 108.150, 159 100.290 C 159 84.146, 143.607 73.377, 128.300 78.812 M 385.250 79.247 C 381.127 80.569, 381.159 81.294, 385.405 82.830 C 387.278 83.507, 390.448 85.172, 392.450 86.531 C 394.451 87.889, 396.280 89, 396.514 89 C 396.747 89, 395.087 86.525, 392.825 83.500 C 390.563 80.475, 388.664 78.046, 388.606 78.102 C 388.548 78.158, 387.038 78.673, 385.250 79.247 M 126.615 87.088 C 120.623 91.801, 119.243 99.759, 123.533 104.857 C 131.339 114.134, 147 108.964, 147 97.109 C 147 95.464, 146.550 93.840, 146 93.500 C 145.450 93.160, 145 93.551, 145 94.368 C 145 95.186, 143.763 96.828, 142.250 98.018 C 137.243 101.956, 129 98.539, 129 92.524 C 129 91.284, 129.933 89.084, 131.073 87.635 C 133.086 85.075, 133.090 85, 131.207 85 C 130.142 85, 128.075 85.940, 126.615 87.088 M 305.655 89.296 C 304.206 97.734, 301.804 120.137, 302.296 120.629 C 303.373 121.707, 313.678 118.016, 317.673 115.122 C 325.427 109.505, 328.448 100.384, 324.533 94.410 C 322.762 91.707, 314.798 87.641, 309.353 86.659 C 306.435 86.132, 306.165 86.324, 305.655 89.296 M 356.435 89.829 C 342.758 96.247, 336.202 112.038, 341.955 124.709 C 346.064 133.760, 358.229 142.273, 370.799 144.895 C 376.939 146.175, 389.651 146.373, 390.377 145.200 C 390.649 144.760, 389.936 140.674, 388.792 136.121 C 386.897 128.576, 386.526 127.896, 384.606 128.458 C 378.702 130.183, 371.872 130.223, 367.508 128.556 C 365.029 127.609, 363 126.513, 363 126.121 C 363 125.728, 369.863 123.882, 378.250 122.017 C 401.715 116.801, 401.554 116.865, 401.216 112.896 C 400.578 105.390, 392.119 95.777, 382.120 91.195 C 374.490 87.698, 362.351 87.053, 356.435 89.829 M 364.500 100.109 C 358.664 103.507, 355.100 110.277, 356.406 115.483 L 356.962 117.697 370.731 114.673 C 378.304 113.010, 384.673 111.518, 384.885 111.357 C 385.772 110.682, 382.639 105.028, 379.949 102.452 C 377.686 100.283, 375.880 99.588, 371.772 99.306 C 368.872 99.107, 365.600 99.468, 364.500 100.109" stroke="none" fill="#325e9c" fill-rule="evenodd"/></svg>